<svg width="550" height="400" viewBox="0 0 550 400" fill="none" xmlns="http://www.w3.org/2000/svg">
<path d="M488.302 337.206C478.227 344.531 468.698 349.268 461.16 353.004C372.636 396.906 267.872 384.112 245.609 380.986C212.726 376.371 149.195 367.447 103.242 330.1C33.7403 273.598 44.5548 184.584 98.4688 125.823C108.332 115.08 160.432 55.4155 266.305 45.856C330.382 40.0691 405.079 51.7407 459.169 83.0683C572.722 148.812 564.637 281.644 488.302 337.206Z" fill="url(#paint0_linear_182_79495)"/>
<path d="M91.4173 110.314C91.2807 110.022 90.9749 109.86 90.6591 109.903L81.6649 111.051C78.9604 107.775 75.731 104.916 72.0262 102.603L71.9624 93.5354C71.9523 93.2153 71.7567 92.9441 71.4505 92.8359L61.1421 89.3452C60.8442 89.2497 60.507 89.3434 60.3115 89.5983L54.7742 96.7778C50.4364 96.3494 46.1306 96.6621 41.9964 97.6248L35.5345 91.2365C35.3175 91.0155 34.9688 90.9533 34.6858 91.1021L24.9394 95.918C24.6481 96.0542 24.4859 96.3599 24.5297 96.6761L25.6919 105.679C22.4233 108.38 19.5713 111.607 17.2666 115.31L8.20526 115.359C7.88549 115.369 7.61474 115.564 7.50718 115.87L4.03617 126.18C3.9413 126.478 4.03542 126.816 4.29049 127.012L11.474 132.565C11.0532 136.906 11.3729 141.215 12.3417 145.354L5.96881 151.81C5.74838 152.027 5.68676 152.375 5.83599 152.659L10.6647 162.42C10.8012 162.712 11.107 162.875 11.4228 162.832L20.4171 161.684C23.1216 164.959 26.3509 167.819 30.0557 170.131L30.1195 179.199C30.1296 179.519 30.3252 179.791 30.6315 179.899L40.9398 183.389C41.2377 183.485 41.575 183.391 41.7705 183.136L47.3077 175.957C51.6456 176.385 55.9513 176.073 60.0855 175.11L66.5474 181.498C66.7645 181.719 67.1131 181.781 67.3961 181.633L77.1425 176.817C77.4338 176.68 77.5961 176.375 77.5523 176.059L76.39 167.056C79.6586 164.355 82.5106 161.128 84.8153 157.424L93.8767 157.376C94.1964 157.366 94.4672 157.171 94.5747 156.864L98.0458 146.554C98.1406 146.256 98.0465 145.919 97.7914 145.723L90.6079 140.169C91.0288 135.829 90.7091 131.52 89.7402 127.381L96.1131 120.925C96.3335 120.708 96.3952 120.359 96.2459 120.076L91.4173 110.314Z" fill="white" fill-opacity="0.7"/>
<path d="M53.4799 125.698C58.6784 126.888 62.3758 131.765 61.9503 137.233C61.4868 143.252 56.2103 147.757 50.2071 147.275C47.298 147.037 44.6415 145.69 42.7491 143.462C40.8567 141.234 39.9323 138.409 40.157 135.485C40.6205 129.466 45.897 124.961 51.9002 125.443C52.4256 125.499 52.9677 125.58 53.4799 125.698ZM49.1558 144.533C49.5631 144.63 49.9664 144.692 50.3868 144.726C54.9902 145.089 59.0386 141.642 59.4069 137.028C59.7625 132.422 56.3112 128.365 51.6995 127.988C47.0961 127.625 43.0477 131.072 42.6794 135.686C42.5105 137.92 43.2087 140.094 44.6635 141.792C45.8515 143.192 47.4173 144.146 49.1558 144.533Z" fill="url(#paint1_linear_182_79495)"/>
<path d="M56.7725 110.242C57.6627 110.44 58.5526 110.693 59.4336 110.988C59.7106 111.079 59.9875 111.17 60.26 111.282C61.6106 111.795 62.9099 112.397 64.162 113.12C64.183 113.125 64.1913 113.137 64.2123 113.142C64.2626 113.163 64.3086 113.206 64.3589 113.227C64.4468 113.279 64.5431 113.343 64.631 113.394C64.8738 113.544 64.9811 113.819 64.9242 114.092C64.9111 114.155 64.8853 114.226 64.8512 114.285C64.668 114.586 64.276 114.679 63.9829 114.508C62.4337 113.58 60.7529 112.81 59.0244 112.217C50.4279 109.294 41.335 111.233 34.7523 116.537C31.0822 119.483 28.1905 123.48 26.5798 128.272C26.2956 129.111 26.0535 129.959 25.866 130.808C24.5634 136.542 25.2531 142.496 27.8993 147.842C30.939 153.983 36.1867 158.571 42.6645 160.775C56.0522 165.318 70.6128 158.115 75.1173 144.733C75.3972 143.915 75.6267 143.075 75.8142 142.227C76.6504 138.576 76.6759 134.767 75.8716 131.101C75.8471 131.008 75.8563 130.912 75.8737 130.828C75.9218 130.597 76.1042 130.405 76.357 130.348C76.7026 130.267 77.05 130.494 77.1104 130.835C77.951 134.695 77.9325 138.681 77.057 142.52C76.8608 143.411 76.6142 144.28 76.313 145.149C71.5802 159.206 56.2891 166.76 42.2469 161.992C35.4419 159.675 29.9352 154.858 26.738 148.421C23.9591 142.816 23.2257 136.546 24.5977 130.531C24.8067 129.632 25.0449 128.75 25.3505 127.86C27.6542 121.054 32.459 115.552 38.8863 112.363C44.4944 109.583 50.7594 108.859 56.7725 110.242Z" fill="url(#paint2_linear_182_79495)"/>
<g opacity="0.3">
<path opacity="0.3" d="M195.618 87.8409C196.025 87.9374 196.355 88.3025 196.385 88.7364C196.442 89.5705 196.473 90.4211 196.462 91.2629C196.458 91.8101 196.017 92.2438 195.478 92.2513C194.931 92.2461 194.497 91.8042 194.489 91.2653C194.491 90.4655 194.472 89.6613 194.419 88.8609C194.39 88.3176 194.793 87.8541 195.349 87.8173C195.429 87.8012 195.526 87.8106 195.618 87.8409Z" fill="white" fill-opacity="0.7"/>
<path opacity="0.3" d="M195.389 95.4118C195.88 95.5259 196.2 95.9878 196.15 96.4925C195.975 97.9136 195.728 99.3636 195.406 100.754C195.345 101.048 195.271 101.35 195.189 101.64C195.058 102.161 194.492 102.459 193.988 102.353C193.468 102.222 193.14 101.692 193.274 101.15C193.344 100.869 193.413 100.588 193.483 100.306C193.784 98.9663 194.026 97.592 194.188 96.2339C194.255 95.6999 194.742 95.3088 195.288 95.3687C195.326 95.3986 195.347 95.403 195.389 95.4118ZM192.897 105.335C192.939 105.344 192.989 105.366 193.031 105.375C193.539 105.569 193.791 106.148 193.597 106.655C192.975 108.279 192.234 109.888 191.423 111.417C191.171 111.89 190.564 112.07 190.091 111.817C189.617 111.564 189.424 110.964 189.689 110.483C190.466 109.013 191.168 107.483 191.765 105.931C191.937 105.474 192.426 105.226 192.897 105.335ZM188.086 114.345C188.212 114.371 188.321 114.427 188.438 114.495C188.877 114.807 188.99 115.422 188.667 115.87C187.659 117.291 186.55 118.67 185.383 119.96C185.014 120.365 184.396 120.388 183.99 120.018C183.585 119.648 183.561 119.029 183.93 118.624C185.05 117.401 186.103 116.077 187.065 114.722C187.294 114.409 187.708 114.265 188.086 114.345ZM181.199 121.899C181.397 121.951 181.585 122.045 181.735 122.219C182.098 122.635 182.034 123.258 181.632 123.612C180.311 124.749 178.897 125.8 177.447 126.767C176.99 127.066 176.381 126.938 176.082 126.481C175.783 126.023 175.909 125.414 176.366 125.115C177.74 124.198 179.09 123.188 180.356 122.105C180.585 121.901 180.905 121.837 181.199 121.899ZM172.683 127.543C172.965 127.613 173.211 127.796 173.352 128.067C173.601 128.558 173.403 129.141 172.913 129.389C171.35 130.157 169.725 130.857 168.093 131.435C167.582 131.624 167.017 131.341 166.836 130.842C166.659 130.323 166.928 129.766 167.426 129.585C168.987 129.036 170.535 128.385 172.026 127.646C172.229 127.513 172.461 127.507 172.683 127.543ZM163.045 130.945C163.41 131.033 163.702 131.314 163.788 131.693C163.905 132.233 163.569 132.744 163.038 132.873C161.34 133.24 159.596 133.51 157.862 133.683C157.315 133.732 156.838 133.336 156.788 132.789C156.737 132.241 157.132 131.765 157.679 131.715C159.334 131.558 160.997 131.305 162.615 130.954C162.767 130.909 162.91 130.906 163.045 130.945ZM152.87 131.868C153.319 131.973 153.64 132.38 153.628 132.86C153.603 133.403 153.153 133.823 152.619 133.81C150.878 133.751 149.125 133.592 147.407 133.318C146.869 133.217 146.499 132.733 146.579 132.191C146.659 131.649 147.162 131.283 147.704 131.364C149.359 131.624 151.024 131.787 152.689 131.841C152.752 131.854 152.807 131.854 152.87 131.868ZM137.929 128.577C137.992 128.59 138.042 128.612 138.092 128.633C139.421 129.197 140.797 129.694 142.178 130.116C142.384 130.181 142.602 130.238 142.808 130.303C143.324 130.455 143.639 130.993 143.484 131.53C143.341 132.059 142.783 132.37 142.267 132.217C142.048 132.161 141.822 132.091 141.608 132.013C140.156 131.566 138.709 131.043 137.329 130.457C136.826 130.242 136.595 129.667 136.809 129.164C136.994 128.699 137.479 128.472 137.929 128.577Z" fill="white" fill-opacity="0.7"/>
</g>
<g opacity="0.3">
<path opacity="0.3" d="M162.808 49.6562C163.342 49.7791 163.661 50.2957 163.552 50.8209C163.443 51.346 162.91 51.6946 162.377 51.5717C160.773 51.2239 159.138 50.9684 157.524 50.8268C156.986 50.7796 156.582 50.3001 156.628 49.7617C156.674 49.2233 157.153 48.8195 157.691 48.8667C159.397 49.0387 161.12 49.2908 162.808 49.6562C162.808 49.6562 162.796 49.6645 162.808 49.6562ZM167.665 51.0157C167.707 51.0245 167.728 51.0289 167.77 51.0377C169.385 51.5961 170.999 52.2639 172.541 53.0152C173.027 53.2598 173.233 53.851 173.002 54.3287C172.759 54.8147 172.168 55.0196 171.69 54.7878C170.219 54.0624 168.685 53.4332 167.141 52.9008C166.629 52.7276 166.352 52.1651 166.537 51.6448C166.679 51.1705 167.173 50.9015 167.665 51.0157ZM152.787 48.736C153.215 48.8369 153.532 49.2103 153.558 49.6652C153.575 50.2168 153.142 50.6632 152.612 50.6834C150.979 50.7352 149.325 50.8921 147.708 51.1336C147.164 51.2168 146.671 50.8501 146.587 50.3063C146.503 49.7624 146.868 49.2692 147.412 49.1859C149.109 48.9284 150.831 48.7637 152.552 48.7085C152.627 48.7134 152.703 48.7184 152.787 48.736ZM176.708 55.4247C176.813 55.4468 176.922 55.5025 177.031 55.5583C178.471 56.4854 179.876 57.5259 181.18 58.6328C181.589 58.9819 181.656 59.6097 181.308 60.0189C180.96 60.4282 180.332 60.4938 179.923 60.1447C178.673 59.0931 177.343 58.1123 175.962 57.2194C175.51 56.9162 175.372 56.3171 175.666 55.8526C175.891 55.5054 176.322 55.3327 176.708 55.4247ZM142.847 50.2666C143.192 50.3498 143.48 50.5967 143.578 50.9681C143.721 51.4915 143.423 52.0317 142.908 52.1867C141.336 52.6349 139.767 53.1714 138.264 53.8097C137.762 54.0112 137.183 53.791 136.973 53.2754C136.77 52.7726 136.989 52.1937 137.504 51.9839C139.087 51.3296 140.719 50.7515 142.372 50.2873C142.536 50.2342 142.7 50.2357 142.847 50.2666ZM133.571 54.1398C133.831 54.2054 134.062 54.3633 134.207 54.6131C134.481 55.0871 134.312 55.6875 133.839 55.9609C132.411 56.7682 131.028 57.6728 129.721 58.637C129.281 58.9611 128.663 58.8753 128.338 58.4344C128.014 57.9935 128.107 57.3882 128.538 57.0514C129.914 56.0246 131.368 55.0913 132.859 54.2425C133.104 54.1185 133.353 54.083 133.571 54.1398ZM125.498 60.1292C125.687 60.1689 125.855 60.2589 125.988 60.4075C126.355 60.8024 126.346 61.4254 125.952 61.7921C124.766 62.9132 123.637 64.1233 122.597 65.3847C122.257 65.8066 121.621 65.8595 121.212 65.5105C120.79 65.1697 120.723 64.5418 121.084 64.1243C122.179 62.8087 123.355 61.5317 124.596 60.3564C124.85 60.1357 125.196 60.0548 125.498 60.1292Z" fill="white" fill-opacity="0.7"/>
<path opacity="0.3" d="M184.46 61.9307C184.649 61.9704 184.825 62.0731 184.958 62.2217C185.53 62.8459 186.089 63.4784 186.626 64.1066C186.976 64.5308 186.913 65.1533 186.502 65.4946C186.079 65.8441 185.457 65.7793 185.115 65.3677C184.606 64.7567 184.077 64.1413 183.53 63.5551C183.163 63.1602 183.185 62.5289 183.579 62.1622C183.812 61.9371 184.158 61.8562 184.46 61.9307Z" fill="white" fill-opacity="0.7"/>
</g>
<path d="M180.832 74.1586C180.741 73.9641 180.531 73.8653 180.321 73.8759L174.299 74.6397C172.486 72.4503 170.322 70.5271 167.848 68.9881L167.807 62.9175C167.809 62.6986 167.672 62.5163 167.466 62.4512L160.569 60.1042C160.363 60.0391 160.152 60.1044 160.008 60.2714L156.302 65.0731C153.402 64.793 150.511 64.9971 147.759 65.6361L143.442 61.3645C143.288 61.2115 143.065 61.1757 142.871 61.2665L136.347 64.5007C136.152 64.5914 136.054 64.801 136.065 65.0116L136.838 71.0386C134.654 72.8491 132.735 75.0114 131.202 77.4847L125.135 77.5156C124.917 77.5135 124.735 77.6507 124.67 77.8564L122.336 84.7548C122.272 84.9604 122.337 85.1715 122.504 85.3162L127.309 89.0326C127.034 91.9346 127.242 94.8286 127.886 97.5835L123.624 101.896C123.472 102.05 123.436 102.273 123.527 102.467L126.77 109.002C126.861 109.196 127.071 109.295 127.281 109.285L133.302 108.521C135.115 110.71 137.279 112.634 139.753 114.172L139.794 120.243C139.792 120.462 139.93 120.644 140.135 120.709L147.033 123.056C147.238 123.122 147.449 123.056 147.594 122.889L151.299 118.088C154.2 118.368 157.091 118.164 159.843 117.525L164.159 121.796C164.314 121.949 164.536 121.985 164.731 121.894L171.255 118.66C171.449 118.569 171.548 118.36 171.537 118.149L170.763 112.122C172.948 110.312 174.866 108.149 176.4 105.676L182.466 105.645C182.685 105.647 182.867 105.51 182.931 105.304L185.265 98.4059C185.33 98.2002 185.264 97.9891 185.097 97.8444L180.293 94.128C180.568 91.226 180.359 88.3321 179.716 85.5771L183.977 81.2648C184.13 81.1105 184.165 80.8877 184.074 80.6932L180.832 74.1586Z" fill="white" fill-opacity="0.7"/>
<path d="M155.486 84.3156C157.036 84.6629 158.425 85.5138 159.484 86.7446C160.781 88.2555 161.409 90.1853 161.247 92.1791C160.92 96.2761 157.333 99.3488 153.239 99.0152C149.144 98.6817 146.068 95.087 146.394 90.99C146.544 89.0045 147.467 87.2031 148.974 85.9082C150.482 84.6133 152.409 83.9875 154.402 84.1538C154.768 84.1867 155.129 84.2407 155.486 84.3156ZM152.599 96.9296C152.859 96.9952 153.115 97.0271 153.384 97.0507C156.403 97.2899 159.041 95.0375 159.275 92.0172C159.391 90.5618 158.931 89.1388 157.981 88.0185C157.031 86.8981 155.702 86.2246 154.248 86.1056C152.793 85.9865 151.372 86.4445 150.254 87.3937C149.136 88.3429 148.465 89.671 148.349 91.1264C148.134 93.8985 149.995 96.3282 152.599 96.9296Z" fill="url(#paint3_linear_182_79495)"/>
<path d="M157.802 73.5654C158.406 73.7142 159.019 73.8758 159.624 74.0794C160.811 74.4822 161.972 75.011 163.065 75.657C163.115 75.6785 163.161 75.721 163.211 75.7426C163.592 75.9651 163.753 76.4044 163.67 76.8035C163.648 76.9086 163.618 77.0009 163.554 77.0971C163.281 77.566 162.67 77.7117 162.201 77.4379C161.188 76.8305 160.106 76.3403 158.99 75.9635C158.927 75.9503 158.869 75.916 158.806 75.9028C156.15 75.0273 153.379 74.8621 150.704 75.3418C149.247 75.6058 147.834 76.0765 146.47 76.7329C146.457 76.7412 146.445 76.7495 146.445 76.7495C146.419 76.7661 146.373 76.7783 146.347 76.7949C142.378 78.7568 139.415 82.1469 137.994 86.343C137.805 86.8842 137.658 87.4343 137.531 87.9887C136.682 91.702 137.14 95.5581 138.842 99.0177C140.809 102.993 144.202 105.964 148.397 107.393C152.584 108.809 157.083 108.515 161.053 106.553C165.022 104.591 167.985 101.201 169.406 97.0051C169.582 96.4721 169.738 95.9348 169.864 95.3803C170.4 93.0154 170.419 90.553 169.895 88.1738C169.871 88.0262 169.868 87.8831 169.899 87.736C169.986 87.3706 170.266 87.0786 170.645 86.9938C171.172 86.8851 171.695 87.2142 171.813 87.7542C172.389 90.4075 172.376 93.1562 171.779 95.8152C171.64 96.4327 171.471 97.0331 171.269 97.6373C169.688 102.337 166.369 106.124 161.922 108.325C157.488 110.518 152.454 110.854 147.756 109.264C143.057 107.675 139.267 104.347 137.06 99.8932C135.147 96.0275 134.634 91.6993 135.583 87.5577C135.722 86.9402 135.895 86.3188 136.098 85.7146C139.164 76.6131 148.631 71.4535 157.802 73.5654Z" fill="url(#paint4_linear_182_79495)"/>
<path d="M449.102 122.86L84.5044 105.153C65.8599 104.242 51.0353 118.942 51.581 137.924L57.5836 343.296C58.1141 361.701 73.5148 376.006 91.7651 375.277L449.511 361.2C463.593 360.653 474.916 347.305 474.916 331.36V153.808C474.916 137.423 463.426 123.558 449.102 122.86Z" fill="url(#paint5_linear_182_79495)"/>
<path d="M433.506 135.114L100.77 119.382C83.7479 118.577 70.2724 131.622 70.7877 148.493L76.3053 330.95C76.7904 347.305 90.8722 360 107.531 359.362L433.885 346.864C446.739 346.379 456.789 334.518 456.789 320.35V162.616C456.789 148.053 446.588 135.737 433.506 135.114Z" fill="#FEDF94"/>
<path d="M75.5625 323.6L75.7899 330.98C76.2749 347.335 90.3568 360.031 107.031 359.393L433.309 346.895C445.178 346.439 456.652 338.087 456.652 317.45L75.5625 323.6Z" fill="url(#paint6_linear_182_79495)"/>
<g opacity="0.6">
<path opacity="0.6" d="M104.77 279.987C104.77 282.781 102.512 285.059 99.7073 285.059C96.9031 285.059 94.6445 282.796 94.6445 279.987C94.6445 277.192 96.9031 274.915 99.7073 274.915C102.512 274.915 104.77 277.192 104.77 279.987Z" fill="white"/>
<path opacity="0.6" d="M333.126 295.279C333.126 298.073 330.867 300.35 328.063 300.35C325.274 300.35 323 298.088 323 295.279C323 292.469 325.259 290.207 328.063 290.207C330.867 290.207 333.126 292.469 333.126 295.279Z" fill="white"/>
<path opacity="0.6" d="M158.264 234.551C158.264 236.981 156.294 238.955 153.869 238.955C151.443 238.955 149.473 236.981 149.473 234.551C149.473 232.121 151.443 230.147 153.869 230.147C156.294 230.147 158.264 232.121 158.264 234.551Z" fill="white"/>
<path opacity="0.6" d="M420.53 246.38C420.53 248.81 418.559 250.784 416.134 250.784C413.709 250.784 411.738 248.81 411.738 246.38C411.738 243.951 413.709 241.977 416.134 241.977C418.559 241.977 420.53 243.951 420.53 246.38Z" fill="white"/>
<path opacity="0.6" d="M227.537 201.886C227.537 203.663 226.113 205.09 224.339 205.09C222.566 205.09 221.141 203.663 221.141 201.886C221.141 200.11 222.566 198.682 224.339 198.682C226.113 198.682 227.537 200.11 227.537 201.886Z" fill="white"/>
<path opacity="0.6" d="M366.385 205.257C366.385 207.034 364.96 208.462 363.187 208.462C361.413 208.462 359.988 207.034 359.988 205.257C359.988 203.481 361.413 202.053 363.187 202.053C364.96 202.053 366.385 203.496 366.385 205.257Z" fill="white"/>
<path opacity="0.6" d="M441.49 309.994C441.49 311.771 440.066 313.198 438.292 313.198C436.519 313.198 435.094 311.771 435.094 309.994C435.094 308.217 436.519 306.79 438.292 306.79C440.066 306.79 441.49 308.217 441.49 309.994Z" fill="white"/>
<path opacity="0.6" d="M290.123 152.077C290.123 153.505 288.97 154.659 287.546 154.659C286.121 154.659 284.969 153.505 284.969 152.077C284.969 150.65 286.121 149.496 287.546 149.496C288.97 149.496 290.123 150.65 290.123 152.077Z" fill="white"/>
<path opacity="0.6" d="M431.201 153.095C431.201 154.522 430.049 155.676 428.624 155.676C427.199 155.676 426.047 154.522 426.047 153.095C426.047 151.667 427.199 150.513 428.624 150.513C430.049 150.513 431.201 151.667 431.201 153.095Z" fill="white"/>
<path opacity="0.6" d="M223.579 287.003C223.579 288.536 222.336 289.782 220.805 289.782C219.274 289.782 218.031 288.536 218.031 287.003C218.031 285.469 219.274 284.224 220.805 284.224C222.336 284.224 223.579 285.469 223.579 287.003Z" fill="white"/>
<path opacity="0.6" d="M112.274 170.422C112.274 171.955 111.031 173.201 109.5 173.201C107.97 173.201 106.727 171.955 106.727 170.422C106.727 168.888 107.97 167.643 109.5 167.643C111.031 167.628 112.274 168.873 112.274 170.422Z" fill="white"/>
</g>
<g opacity="0.5">
<g opacity="0.5">
<path opacity="0.5" d="M48.1437 322.461L46.3398 322.112L102.288 116.254L104.092 116.603L48.1437 322.461Z" fill="#F47960"/>
</g>
<g opacity="0.5">
<path opacity="0.5" d="M110.229 322.416L108.41 322.158L148.155 116.3L149.989 116.558L110.229 322.416Z" fill="#F47960"/>
</g>
<g opacity="0.5">
<path opacity="0.5" d="M172.319 322.37L170.484 322.218L194.04 116.345L195.874 116.497L172.319 322.37Z" fill="#F47960"/>
</g>
<g opacity="0.5">
<path opacity="0.5" d="M234.404 322.309L232.555 322.264L239.922 116.406L241.756 116.451L234.404 322.309Z" fill="#F47960"/>
</g>
<g opacity="0.5">
<path opacity="0.5" d="M462.596 134.355H60.7852V135.92H462.596V134.355Z" fill="#F47960"/>
</g>
<g opacity="0.5">
<path opacity="0.5" d="M481.348 190.497H42.0508V192.061H481.348V190.497Z" fill="#F47960"/>
</g>
<g opacity="0.5">
<path opacity="0.5" d="M500.08 246.639H23.3125V248.203H500.08V246.639Z" fill="#F47960"/>
</g>
<g opacity="0.5">
<path opacity="0.5" d="M518.817 302.796H4.57812V304.36H518.817V302.796Z" fill="#F47960"/>
</g>
<g opacity="0.5">
<path opacity="0.5" d="M294.642 322.324L285.805 116.451L287.654 116.391L296.476 322.264L294.642 322.324Z" fill="#F47960"/>
</g>
<g opacity="0.5">
<path opacity="0.5" d="M356.717 322.37L331.691 116.497L333.526 116.345L358.552 322.203L356.717 322.37Z" fill="#F47960"/>
</g>
<g opacity="0.5">
<path opacity="0.5" d="M418.805 322.415L377.59 116.558L379.409 116.284L420.624 322.157L418.805 322.415Z" fill="#F47960"/>
</g>
<g opacity="0.5">
<path opacity="0.5" d="M480.907 322.476L423.488 116.603L425.277 116.239L482.696 322.112L480.907 322.476Z" fill="#F47960"/>
</g>
</g>
<path d="M333.494 153.049L327.628 142.874C326.733 141.325 325.081 140.384 323.293 140.384H311.575C309.787 140.384 308.134 141.325 307.24 142.874L301.374 153.049C300.48 154.598 300.48 156.511 301.374 158.06L307.24 168.447C308.134 169.996 309.787 171.15 311.575 171.15H323.293C325.081 171.15 326.733 169.996 327.628 168.447L333.494 158.151C334.373 156.602 334.373 154.598 333.494 153.049Z" fill="url(#paint7_linear_182_79495)"/>
<path d="M331.554 152.943L326.491 144.378C325.718 143.042 324.293 142.434 322.747 142.434H312.637C311.091 142.434 309.666 143.026 308.893 144.378L303.83 153.064C303.057 154.4 303.057 155.995 303.83 157.331L308.893 166.792C309.666 168.128 311.091 169.616 312.637 169.616H322.747C324.293 169.616 325.718 168.098 326.491 166.762L331.554 157.62C332.312 156.268 332.312 154.279 331.554 152.943Z" fill="#BDD0FB"/>
<path d="M382.213 153.049L376.347 142.874C375.452 141.325 373.8 140.384 372.011 140.384H360.294C358.505 140.384 356.853 141.325 355.959 142.874L350.093 153.049C349.198 154.598 349.198 156.511 350.093 158.06L355.959 168.447C356.853 169.996 358.505 171.15 360.294 171.15H372.011C373.8 171.15 375.452 169.996 376.347 168.447L382.213 158.151C383.092 156.602 383.092 154.598 382.213 153.049Z" fill="url(#paint8_linear_182_79495)"/>
<path d="M380.273 152.943L375.21 144.378C374.437 143.042 373.012 142.434 371.466 142.434H361.355C359.809 142.434 358.384 143.026 357.611 144.378L352.549 153.064C351.775 154.4 351.775 155.995 352.549 157.331L357.611 166.792C358.384 168.128 359.809 169.616 361.355 169.616H371.466C373.012 169.616 374.437 168.098 375.21 166.762L380.273 157.62C381.031 156.268 381.031 154.279 380.273 152.943Z" fill="#BDD0FB"/>
<path d="M430.931 153.049L425.065 142.874C424.17 141.325 422.518 140.384 420.729 140.384H408.997C407.208 140.384 405.556 141.325 404.662 142.874L398.796 153.049C397.901 154.598 397.901 156.511 398.796 158.06L404.662 168.447C405.556 169.996 407.208 171.15 408.997 171.15H420.714C422.503 171.15 424.155 169.996 425.05 168.447L430.916 158.151C431.81 156.602 431.81 154.598 430.931 153.049Z" fill="url(#paint9_linear_182_79495)"/>
<path d="M428.991 152.943L423.928 144.378C423.155 143.042 421.73 142.434 420.184 142.434H410.059C408.512 142.434 407.088 143.026 406.314 144.378L401.252 153.064C400.479 154.4 400.479 155.995 401.252 157.331L406.314 166.792C407.088 168.128 408.512 169.616 410.059 169.616H420.169C421.715 169.616 423.14 168.098 423.913 166.762L428.976 157.62C429.764 156.268 429.764 154.279 428.991 152.943Z" fill="#BDD0FB"/>
<g opacity="0.73">
<path opacity="0.73" d="M202.481 331.102C202.526 333.547 200.662 335.551 198.312 335.597L97.9806 337.374C95.6311 337.419 93.706 335.475 93.6605 333.03L93.6453 332.545C93.5999 330.1 95.4643 328.095 97.8138 328.049L198.145 326.273C200.495 326.227 202.42 328.171 202.465 330.616L202.481 331.102Z" fill="#BDD0FB"/>
<path opacity="0.73" d="M189.352 347.457C189.398 349.841 187.715 351.815 185.653 351.861L97.4787 353.425C95.4172 353.455 94.0075 351.542 93.9621 349.158V348.976C93.9166 346.591 95.2657 344.678 97.3272 344.648L185.502 343.083C187.563 343.053 189.307 344.906 189.352 347.29V347.457Z" fill="#BDD0FB"/>
</g>
<path d="M42.2449 329.232C45.4177 329.232 47.9898 319.136 47.9898 306.681C47.9898 294.227 45.4177 284.13 42.2449 284.13C39.0721 284.13 36.5 294.227 36.5 306.681C36.5 319.136 39.0721 329.232 42.2449 329.232Z" fill="url(#paint10_linear_182_79495)"/>
<path d="M49.9448 297.63C49.9448 298.238 49.4445 298.739 48.8382 298.739H35.1808C34.5744 298.739 34.0742 298.238 34.0742 297.63V295.747C34.0742 295.14 34.5744 294.639 35.1808 294.639H48.8382C49.4445 294.639 49.9448 295.14 49.9448 295.747V297.63Z" fill="url(#paint11_linear_182_79495)"/>
<path d="M65.8895 325.283C69.0623 325.283 71.6344 315.187 71.6344 302.732C71.6344 290.278 69.0623 280.182 65.8895 280.182C62.7166 280.182 60.1445 290.278 60.1445 302.732C60.1445 315.187 62.7166 325.283 65.8895 325.283Z" fill="url(#paint12_linear_182_79495)"/>
<path d="M73.9994 294.046C73.9994 294.654 73.4992 295.155 72.8929 295.155H59.2354C58.6291 295.155 58.1289 294.654 58.1289 294.046V292.163C58.1289 291.556 58.6291 291.055 59.2354 291.055H72.8929C73.4992 291.055 73.9994 291.556 73.9994 292.163V294.046Z" fill="url(#paint13_linear_182_79495)"/>
<path d="M93.3267 346.954H38.4543C35.8168 346.954 33.3309 348.001 31.8303 350.203L21.5834 366.194C21.1893 366.832 20.4465 367.454 19.6886 367.454H19.6431C18.9307 367.454 18.2031 365.101 18.2031 364.311V323.355C18.2031 320.12 20.6739 317.357 23.9026 316.916L50.2474 313.12C51.9451 312.877 53.5518 312.133 54.7341 310.903L89.0521 276.902L91.4319 315.55L93.3267 346.954Z" fill="url(#paint14_linear_182_79495)"/>
<path d="M92.7514 347.971H37.879C35.2415 347.971 32.7556 349.079 31.2549 351.281L21.008 366.558C20.6139 367.196 19.8712 367.409 19.1133 367.166L33.8924 338.161C36.1358 333.818 40.5923 330.522 45.4429 330.522H59.4035C61.5711 330.522 63.6933 330.553 65.588 329.52L90.8566 316.339L92.7514 347.971Z" fill="white"/>
<path d="M168.073 329.232C171.246 329.232 173.818 319.136 173.818 306.681C173.818 294.227 171.246 284.13 168.073 284.13C164.9 284.13 162.328 294.227 162.328 306.681C162.328 319.136 164.9 329.232 168.073 329.232Z" fill="url(#paint15_linear_182_79495)"/>
<path d="M175.878 295.747C175.878 295.14 175.378 294.639 174.772 294.639H161.114C160.508 294.639 160.008 295.14 160.008 295.747V297.63C160.008 298.238 160.508 298.739 161.114 298.739H174.772C175.378 298.739 175.878 298.238 175.878 297.63V295.747Z" fill="url(#paint16_linear_182_79495)"/>
<path d="M144.413 325.283C147.586 325.283 150.158 315.187 150.158 302.732C150.158 290.278 147.586 280.182 144.413 280.182C141.24 280.182 138.668 290.278 138.668 302.732C138.668 315.187 141.24 325.283 144.413 325.283Z" fill="url(#paint17_linear_182_79495)"/>
<path d="M152.839 292.163C152.839 291.556 152.339 291.055 151.733 291.055H138.075C137.469 291.055 136.969 291.556 136.969 292.163V294.046C136.969 294.654 137.469 295.155 138.075 295.155H151.733C152.339 295.155 152.839 294.654 152.839 294.046V292.163Z" fill="url(#paint18_linear_182_79495)"/>
<path d="M117.551 346.954H172.423C175.06 346.954 177.546 348.001 179.047 350.203L189.294 366.194C189.688 366.832 190.431 367.454 191.189 367.454H191.234C191.947 367.454 190.067 323.431 190.067 323.431C190.067 320.196 188.9 317.387 185.656 316.947L159.963 313.135C158.265 312.892 156.992 312.133 155.81 310.918L121.659 276.902L119.37 315.55L117.551 346.954Z" fill="url(#paint19_linear_182_79495)"/>
<path d="M116.988 347.47H171.861C174.498 347.47 176.984 348.548 178.485 350.75L188.732 366.012C189.126 366.649 189.869 366.847 190.627 366.619L175.847 337.645C173.604 333.301 169.147 330.037 164.297 330.037H150.336C148.169 330.037 146.046 330.037 144.152 329.004L118.883 315.838L116.988 347.47Z" fill="white"/>
<path d="M89.9176 340.879C89.5689 340.333 88.9778 339.968 88.326 339.923C87.6742 339.877 87.0376 340.135 86.6131 340.621C83.9605 343.628 81.6716 346.635 79.7617 349.641C79.3524 350.279 82.6114 384.204 84.779 385.799C85.931 386.649 89.0536 386.512 89.3719 386.284C91.9336 384.386 95.3896 351.282 94.9501 350.294C93.601 347.151 91.9184 344.008 89.9176 340.879Z" fill="#6C98E3"/>
<path d="M127.175 340.879C126.827 340.333 126.236 339.968 125.584 339.923C124.932 339.877 124.295 340.135 123.871 340.621C121.218 343.628 118.929 346.635 117.019 349.641C116.61 350.279 119.869 384.204 122.037 385.799C123.189 386.649 126.311 386.512 126.63 386.284C129.191 384.386 132.647 351.282 132.208 350.294C130.844 347.151 129.161 344.008 127.175 340.879Z" fill="#B3CDFA"/>
<path d="M123.081 246.348L107.62 183.281C107.498 182.78 107.423 182.416 106.907 182.4C106.392 182.385 106.119 182.689 105.952 183.175L85.0492 243.462C84.6854 244.571 83.7305 245.71 83.7305 246.879V357.872C83.7305 360.241 87.3533 362.853 89.7179 362.853H120.595C124.612 365.92 123.308 247.228 123.081 246.348Z" fill="url(#paint20_linear_182_79495)"/>
<path d="M103.515 290.068C110.957 290.068 116.99 276.952 116.99 260.774C116.99 244.596 110.957 231.481 103.515 231.481C96.0722 231.481 90.0391 244.596 90.0391 260.774C90.0391 276.952 96.0722 290.068 103.515 290.068Z" fill="#1C3C8E"/>
<path d="M109.636 336.931C109.288 336.384 108.697 336.019 108.045 335.974C107.393 335.928 106.756 336.186 106.332 336.672C103.679 339.679 101.39 342.686 99.4804 345.708C99.0712 346.346 102.33 380.271 104.498 381.865C105.65 382.716 108.772 382.579 109.091 382.351C111.652 380.453 115.108 347.348 114.669 346.361C113.305 343.202 111.622 340.059 109.636 336.931Z" fill="#6C98E3"/>
<path d="M123.657 304.388H83.7305V326.954H123.657V304.388Z" fill="#B3CDFA"/>
<path d="M200.087 158.881L206.499 145.457C206.832 144.743 206.287 144.212 205.332 144.242L204.953 144.257C204.028 144.288 203.028 144.834 202.664 145.487L198.116 153.596C197.616 154.477 196.631 155.191 195.6 155.434L188.764 156.952L183.762 164.591L196.752 161.538C198.177 161.204 199.465 160.172 200.087 158.881Z" fill="url(#paint21_linear_182_79495)"/>
<path d="M159.13 145.457L165.541 158.881C166.163 160.172 167.451 161.204 168.876 161.538L181.867 164.591L176.865 156.952L170.028 155.434C168.998 155.206 168.012 154.477 167.512 153.596L162.965 145.487C162.601 144.834 161.585 144.288 160.676 144.257L160.297 144.242C159.342 144.212 158.796 144.743 159.13 145.457Z" fill="url(#paint22_linear_182_79495)"/>
<path d="M191.629 174.704C189.628 179.792 185.823 184.803 183.004 184.803C182.958 184.803 182.928 184.803 182.882 184.803C180.063 184.803 176.258 179.807 174.257 174.704C172.56 169.708 170.862 164.682 169.164 159.701C167.133 154.538 173.045 153.536 182.776 153.596C182.897 153.596 183.019 153.581 183.14 153.581C192.872 153.52 198.783 154.553 196.752 159.701C195.024 164.682 193.326 169.708 191.629 174.704Z" fill="url(#paint23_linear_182_79495)"/>
<path d="M176.957 174.796C176.957 171.348 179.746 168.539 183.202 168.539C186.643 168.539 189.447 171.333 189.447 174.796C189.447 178.243 186.658 181.052 183.202 181.052C179.746 181.052 176.957 178.258 176.957 174.796Z" fill="#7D97F4"/>
<path d="M178.5 175.16C178.5 172.594 180.577 170.513 183.138 170.513C185.7 170.513 187.777 172.594 187.777 175.16C187.777 177.726 185.7 179.807 183.138 179.807C180.577 179.807 178.5 177.726 178.5 175.16Z" fill="url(#paint24_linear_182_79495)"/>
<path d="M181.32 147.613C181.335 146.869 181.896 146.186 182.563 146.049C183.245 145.912 183.851 146.398 183.881 147.142L184.533 159.883C184.609 161.371 183.821 162.647 182.775 162.647C181.759 162.647 180.986 161.417 181.016 159.989L181.32 147.613Z" fill="url(#paint25_linear_182_79495)"/>
<path d="M388.792 200.58L394.582 188.447C394.885 187.809 394.4 187.323 393.521 187.353L393.187 187.369C392.354 187.399 391.444 187.885 391.111 188.477L387.003 195.812C386.563 196.602 385.669 197.255 384.729 197.467L378.56 198.849L374.027 205.759L385.775 202.995C387.079 202.691 388.246 201.749 388.792 200.58Z" fill="url(#paint26_linear_182_79495)"/>
<path d="M351.774 188.447L357.565 200.58C358.125 201.75 359.293 202.676 360.566 202.98L372.313 205.743L367.781 198.834L361.612 197.452C360.672 197.239 359.778 196.586 359.338 195.797L355.23 188.462C354.897 187.87 353.987 187.384 353.154 187.353L352.82 187.338C351.956 187.323 351.471 187.809 351.774 188.447Z" fill="url(#paint27_linear_182_79495)"/>
<path d="M381.152 215.386C379.348 219.987 375.892 225.014 373.345 225.014C373.315 225.014 373.27 225.014 373.239 225.014C370.693 225.014 367.252 219.987 365.433 215.386C363.902 210.876 362.356 206.077 360.825 201.567C358.991 196.905 364.326 195.872 373.118 195.918C373.224 195.918 373.33 195.842 373.452 195.842C382.243 195.797 387.594 196.935 385.745 201.598C384.214 206.108 382.683 210.876 381.152 215.386Z" fill="url(#paint28_linear_182_79495)"/>
<path d="M367.887 214.976C367.887 211.848 370.418 209.327 373.526 209.327C376.633 209.327 379.164 211.863 379.164 214.976C379.164 218.089 376.633 220.625 373.526 220.625C370.418 220.625 367.887 218.089 367.887 214.976Z" fill="#7D97F4"/>
<path d="M369.281 215.295C369.281 212.972 371.161 211.089 373.48 211.089C375.799 211.089 377.679 212.972 377.679 215.295C377.679 217.619 375.799 219.502 373.48 219.502C371.161 219.502 369.281 217.619 369.281 215.295Z" fill="url(#paint29_linear_182_79495)"/>
<path d="M371.828 190.39C371.844 189.722 372.344 189.1 372.95 188.978C373.572 188.857 374.117 189.282 374.148 189.965L374.739 201.476C374.815 202.828 374.087 203.982 373.147 203.982C372.238 203.982 371.525 202.873 371.556 201.582L371.828 190.39Z" fill="url(#paint30_linear_182_79495)"/>
<path d="M271.36 157.118L275.937 147.536C276.18 147.035 275.786 146.655 275.104 146.67L274.831 146.686C274.179 146.701 273.451 147.096 273.194 147.566L269.95 153.352C269.601 153.975 268.889 154.491 268.161 154.658L263.28 155.751L259.703 161.203L268.98 159.032C269.995 158.773 270.92 158.044 271.36 157.118Z" fill="url(#paint31_linear_182_79495)"/>
<path d="M242.134 147.536L246.712 157.118C247.152 158.045 248.076 158.774 249.092 159.017L258.369 161.188L254.791 155.736L249.91 154.643C249.168 154.476 248.47 153.96 248.122 153.337L244.878 147.551C244.62 147.08 243.893 146.701 243.241 146.67L242.968 146.655C242.286 146.655 241.892 147.035 242.134 147.536Z" fill="url(#paint32_linear_182_79495)"/>
<path d="M265.328 168.493C263.903 172.122 261.175 175.782 259.174 175.782C259.143 175.782 259.113 175.782 259.083 175.782C257.067 175.782 254.353 172.137 252.929 168.493C251.716 164.939 250.503 161.31 249.291 157.741C247.835 154.066 252.049 153.322 258.992 153.368C259.083 153.368 259.158 153.352 259.249 153.352C266.192 153.307 270.406 154.081 268.951 157.756C267.753 161.31 266.54 164.924 265.328 168.493Z" fill="url(#paint33_linear_182_79495)"/>
<path d="M254.852 168.477C254.852 166.017 256.837 164.013 259.308 164.013C261.779 164.013 263.764 166.002 263.764 168.477C263.764 170.937 261.779 172.942 259.308 172.942C256.837 172.942 254.852 170.937 254.852 168.477Z" fill="#7D97F4"/>
<path d="M259.261 172.046C261.087 172.046 262.566 170.564 262.566 168.735C262.566 166.907 261.087 165.425 259.261 165.425C257.436 165.425 255.957 166.907 255.957 168.735C255.957 170.564 257.436 172.046 259.261 172.046Z" fill="url(#paint34_linear_182_79495)"/>
<path d="M257.975 149.085C257.99 148.553 258.384 148.067 258.869 147.976C259.354 147.885 259.779 148.219 259.809 148.766L260.279 157.862C260.339 158.925 259.763 159.836 259.036 159.836C258.308 159.836 257.762 158.956 257.778 157.938L257.975 149.085Z" fill="url(#paint35_linear_182_79495)"/>
<path d="M268.97 243.366L271.092 210.565L279.171 243.366L297.877 238.674L283.431 253.586L291.071 274.026L278.747 261.468L265.135 282.12L268.894 256.274L248.977 258.279L267.697 249.122L252.812 236.548L268.97 243.366Z" fill="url(#paint36_linear_182_79495)"/>
<path d="M246.364 174.279L247.607 155.145L252.321 174.279L263.235 171.545L254.807 180.247L259.263 192.167L252.078 184.848L244.135 196.89L246.318 181.811L234.707 182.98L245.621 177.635L236.935 170.3L246.364 174.279Z" fill="url(#paint37_linear_182_79495)"/>
<path d="M152.032 232.152L153.609 207.839L159.596 232.152L173.466 228.674L162.749 239.729L168.418 254.885L159.278 245.576L149.198 260.883L151.987 241.734L137.223 243.207L151.092 236.419L140.057 227.095L152.032 232.152Z" fill="url(#paint38_linear_182_79495)"/>
<path d="M257.398 242.584C257.11 242.584 256.625 242.356 256.625 242.083V240.048C256.625 239.775 257.11 239.547 257.398 239.547C257.686 239.547 258.171 239.775 258.171 240.048V242.083C258.171 242.356 257.671 242.584 257.398 242.584Z" fill="white"/>
<path d="M257.398 234.445C257.11 234.445 256.625 234.217 256.625 233.943V228.856C256.625 228.583 257.11 228.355 257.398 228.355C257.686 228.355 258.171 228.583 258.171 228.856V233.943C258.171 234.217 257.671 234.445 257.398 234.445ZM257.398 224.285C257.11 224.285 256.625 224.058 256.625 223.784V218.697C256.625 218.408 257.11 218.196 257.398 218.196C257.686 218.196 258.171 218.424 258.171 218.697V223.784C258.171 224.058 257.671 224.285 257.398 224.285ZM257.398 214.111C257.11 214.111 256.625 213.883 256.625 213.61V208.523C256.625 208.234 257.11 208.021 257.398 208.021C257.686 208.021 258.171 208.249 258.171 208.523V213.61C258.171 213.883 257.671 214.111 257.398 214.111ZM257.398 203.936C257.11 203.936 256.625 203.709 256.625 203.435V198.348C256.625 198.06 257.11 197.847 257.398 197.847C257.686 197.847 258.171 198.075 258.171 198.348V203.435C258.171 203.709 257.671 203.936 257.398 203.936ZM257.398 193.777C257.11 193.777 256.625 193.549 256.625 193.276V188.189C256.625 187.9 257.11 187.688 257.398 187.688C257.686 187.688 258.171 187.915 258.171 188.189V193.276C258.171 193.549 257.671 193.777 257.398 193.777ZM257.398 183.603C257.11 183.603 256.625 183.375 256.625 183.102V182.084C256.625 181.796 257.11 181.583 257.398 181.583C257.686 181.583 258.171 181.811 258.171 182.084V183.102C258.171 183.375 257.671 183.603 257.398 183.603Z" fill="white"/>
<path d="M257.398 180.55C257.11 180.55 256.625 180.322 256.625 180.049V176.997C256.625 176.708 257.11 176.496 257.398 176.496C257.686 176.496 258.171 176.723 258.171 176.997V180.049C258.171 180.322 257.671 180.55 257.398 180.55Z" fill="white"/>
<path d="M288.207 81.4178L280.537 68.024C279.37 65.9891 277.202 64.668 274.868 64.668H259.558C257.224 64.668 255.056 65.9891 253.889 68.024L246.219 81.3723C245.052 83.392 245.052 85.9128 246.219 87.9325L253.889 101.311C255.056 103.346 257.224 104.652 259.558 104.652H274.868C277.202 104.652 279.37 103.346 280.537 101.311L288.207 87.9629C289.374 85.9736 289.374 83.4375 288.207 81.4178Z" fill="url(#paint39_linear_182_79495)"/>
<path d="M285.677 81.281L279.068 70.1802C278.053 68.4338 276.188 67.7505 274.172 67.7505H260.955C258.939 67.7505 257.074 68.4338 256.058 70.1802L249.45 81.4784C248.449 83.2247 248.449 85.2748 249.45 87.0364L256.058 99.1698C257.074 100.916 258.939 102.632 260.955 102.632H274.172C276.188 102.632 278.053 100.871 279.068 99.109L285.677 87.2793C286.678 85.5178 286.678 83.0273 285.677 81.281Z" fill="url(#paint40_linear_182_79495)"/>
<path d="M431.361 80.3548C431.361 84.3639 428.754 86.7177 425.464 86.7177H304.048C300.759 86.7177 297.742 84.3639 297.742 80.3548V80.2789C297.742 76.2699 300.759 73.9009 304.048 73.9009H425.464C428.754 73.9009 431.361 76.2699 431.361 80.2789V80.3548Z" fill="url(#paint41_linear_182_79495)"/>
<path d="M382.507 80.8255C382.507 83.4071 380.84 86.2164 378.763 86.2164H305.307C303.245 86.2164 301.562 83.4071 301.562 80.8255C301.562 78.2439 303.23 75.4346 305.307 75.4346H378.763C380.84 75.4346 382.507 78.2439 382.507 80.8255Z" fill="url(#paint42_linear_182_79495)"/>
<path d="M272.504 78.0009C272.504 80.9166 270.155 84.0601 267.244 84.0601C264.334 84.0601 261.984 80.9166 261.984 78.0009C261.984 75.0853 264.334 73.02 267.244 73.02C270.155 73.02 272.504 75.0853 272.504 78.0009Z" fill="white"/>
<path d="M260.709 95.2521H273.548C274.897 95.2521 276.095 94.3713 276.504 93.0805L277.201 90.9089C277.702 89.3296 276.883 87.6136 275.322 87.0366C270.092 85.1232 264.696 85.3662 259.148 87.2188C257.602 87.7351 256.738 89.3904 257.162 90.9849L257.693 92.9438C258.087 94.3105 259.315 95.2521 260.709 95.2521Z" fill="white"/>
<path d="M446.177 342.157H344.33C343.587 342.157 342.98 341.549 342.98 340.805V324.739C342.98 323.995 343.587 323.387 344.33 323.387H446.177C446.92 323.387 447.526 323.995 447.526 324.739V340.805C447.526 341.549 446.92 342.157 446.177 342.157Z" fill="#BDD0FB"/>
<path d="M353.669 338.072C356.591 338.072 358.959 335.699 358.959 332.772C358.959 329.845 356.591 327.472 353.669 327.472C350.747 327.472 348.379 329.845 348.379 332.772C348.379 335.699 350.747 338.072 353.669 338.072Z" fill="url(#paint43_linear_182_79495)"/>
<path d="M367.567 338.072C370.489 338.072 372.858 335.699 372.858 332.772C372.858 329.845 370.489 327.472 367.567 327.472C364.646 327.472 362.277 329.845 362.277 332.772C362.277 335.699 364.646 338.072 367.567 338.072Z" fill="url(#paint44_linear_182_79495)"/>
<path d="M381.364 338.072C384.286 338.072 386.655 335.699 386.655 332.772C386.655 329.845 384.286 327.472 381.364 327.472C378.443 327.472 376.074 329.845 376.074 332.772C376.074 335.699 378.443 338.072 381.364 338.072Z" fill="url(#paint45_linear_182_79495)"/>
<path d="M395.247 338.072C398.169 338.072 400.537 335.699 400.537 332.772C400.537 329.845 398.169 327.472 395.247 327.472C392.326 327.472 389.957 329.845 389.957 332.772C389.957 335.699 392.326 338.072 395.247 338.072Z" fill="url(#paint46_linear_182_79495)"/>
<path d="M409.376 338.072C412.298 338.072 414.666 335.699 414.666 332.772C414.666 329.845 412.298 327.472 409.376 327.472C406.454 327.472 404.086 329.845 404.086 332.772C404.086 335.699 406.454 338.072 409.376 338.072Z" fill="#7D97F4"/>
<path d="M423.275 338.072C426.196 338.072 428.565 335.699 428.565 332.772C428.565 329.845 426.196 327.472 423.275 327.472C420.353 327.472 417.984 329.845 417.984 332.772C417.984 335.699 420.353 338.072 423.275 338.072Z" fill="#7D97F4"/>
<path d="M437.068 338.072C439.989 338.072 442.358 335.699 442.358 332.772C442.358 329.845 439.989 327.472 437.068 327.472C434.146 327.472 431.777 329.845 431.777 332.772C431.777 335.699 434.146 338.072 437.068 338.072Z" fill="#7D97F4"/>
<path d="M241.163 250.084C241.391 260.121 232.341 268.473 220.958 268.732C209.574 268.99 200.146 261.063 199.918 251.025C199.691 240.987 208.74 232.635 220.124 232.377C231.523 232.104 240.936 240.031 241.163 250.084Z" fill="url(#paint47_linear_182_79495)"/>
<path d="M211.816 236.948C206.829 240.486 200.296 244.602 205.419 253.091C210.558 261.564 212.528 245.892 215.833 242.172C219.122 238.451 215.818 234.108 211.816 236.948Z" fill="#7D97F4"/>
<path d="M215.106 255.535C211.499 257.115 211.286 258.937 215.258 262.49C219.245 266.044 218.699 253.956 215.106 255.535Z" fill="#7D97F4"/>
<path d="M226.885 257.539C220.382 259.939 220.215 263.325 225.43 263.766C230.629 264.221 234.403 254.76 226.885 257.539Z" fill="#7D97F4"/>
<path d="M512.75 180.337C519.944 177.826 523.744 169.948 521.238 162.742C518.731 155.535 510.868 151.728 503.674 154.239C496.48 156.75 492.68 164.628 495.187 171.834C497.693 179.041 505.557 182.848 512.75 180.337Z" fill="#7D97F4"/>
<path opacity="0.18" d="M521.147 162.453C516.175 168.285 518.373 161.998 514.447 159.553C509.96 156.759 503.851 170.122 506.125 158.779C506.55 156.622 506.716 154.921 506.732 153.57C505.034 153.752 503.427 154.238 501.972 154.982C503.412 156.485 504.064 159.31 502.609 164.412C498.501 178.809 504.185 178.368 506.398 170.684C508.611 163 515.447 160.555 513.916 168.847C512.552 176.257 516.963 176.288 522.026 167.617C522.026 167.404 522.026 167.207 522.026 166.994C521.981 165.4 521.677 163.881 521.147 162.453Z" fill="white"/>
<path d="M523.497 104.086C519.299 116.569 504.747 122.932 490.983 118.285C477.22 113.638 469.474 99.7585 473.673 87.2758C477.872 74.7931 492.423 68.4303 506.187 73.0771C519.95 77.724 527.696 91.6037 523.497 104.086Z" fill="url(#paint48_linear_182_79495)"/>
<path d="M471.34 100.943C471.34 100.943 461.821 103.16 460.699 112.651C459.562 122.142 490 123.357 506.325 114.899C522.65 106.44 539.597 97.2833 539.157 86.7899C538.718 76.3118 521.104 82.9631 521.104 82.9631C521.104 82.9631 542.144 92.8491 501.565 108.065C460.199 123.585 471.34 100.943 471.34 100.943Z" fill="#91B3FA"/>
<path d="M479.511 102.036C479.496 102.993 478.147 103.175 477.889 102.264C476.403 97.1161 475.676 88.8399 482.33 81.3077C488.863 73.9123 498.14 74.8538 504.325 76.6761C505.28 76.9646 505.022 78.3769 504.022 78.301C498.519 77.9061 491.061 78.3617 487.014 82.887C480.936 89.7055 479.602 97.1769 479.511 102.036Z" fill="#7D97F4"/>
<path opacity="0.5" d="M467.294 106.258C467.84 105.149 451.287 123.494 498.717 115.445C498.717 115.445 460.412 119.986 467.294 106.258Z" fill="white"/>
<path opacity="0.5" d="M526.18 84.4816C526.18 84.4816 550.979 79.6829 520.875 103.57C520.875 103.585 541.641 84.1931 526.18 84.4816Z" fill="white"/>
<path d="M489.977 235.442C489.977 235.442 507.73 245.315 509.256 261.932C510.702 278.628 509.417 347.823 473.67 364.841C438.003 381.859 390.769 377.926 372.694 376.079C354.62 374.233 344.579 361.951 342.329 353.523C340.08 345.094 336.465 313.547 355.503 303.433C374.542 293.238 394.464 277.745 414.466 262.574C434.469 247.402 468.609 222.598 489.977 235.442Z" fill="url(#paint49_linear_182_79495)"/>
<path d="M361.126 309.132C361.126 309.132 365.946 309.373 366.508 319.246C366.508 319.246 355.342 329.2 340.32 331.608C339.196 331.769 341.927 323.902 342.329 322.858C344.257 317.801 350.362 314.51 361.126 309.132Z" fill="url(#paint50_linear_182_79495)"/>
<path d="M415.189 297.492H405.067C405.067 297.492 373.979 263.135 353.575 259.684C353.575 259.684 339.357 277.825 354.298 311.62C355.503 314.349 358.877 315.553 361.367 313.948C362.09 313.466 362.653 312.824 362.974 312.021L361.769 283.123C361.769 283.123 388.278 306.322 392.937 310.817C397.597 315.313 420.973 312.583 415.189 297.492Z" fill="url(#paint51_linear_182_79495)"/>
<path d="M317.268 369.578C321.525 365.885 328.273 361.711 338.074 360.507L341.367 362.514C341.367 362.514 339.279 365.644 335.423 368.935C331.888 371.023 326.426 373.752 321.927 374.394C317.429 374.956 316.786 372.307 317.268 369.578Z" fill="url(#paint52_linear_182_79495)"/>
<path d="M342.328 322.858C344.979 323.741 346.104 327.433 352.771 324.945C359.198 322.537 363.937 319.486 366.427 317.72C366.508 318.202 366.508 318.683 366.588 319.245C366.588 319.245 354.86 330.403 339.838 332.812C338.713 332.972 337.83 331.848 338.231 330.805C338.874 328.878 340.159 325.988 342.328 322.858Z" fill="url(#paint53_linear_182_79495)"/>
<path d="M314.054 372.788C314.857 371.825 315.982 370.781 317.267 369.577C316.785 372.226 317.508 374.875 321.846 374.314C326.344 373.671 331.807 370.942 335.341 368.855C330.923 372.628 324.175 376.641 315.66 376.401C313.813 376.401 312.768 374.153 314.054 372.788Z" fill="url(#paint54_linear_182_79495)"/>
<path d="M414.869 304.877L367.394 305.359C367.394 305.359 340.322 327.755 335.342 361.951C335.342 361.951 334.539 364.439 339.439 364.921C339.439 364.921 355.826 354.245 366.51 335.3C379.604 312.101 405.551 322.537 405.551 322.537C414.066 316.356 426.116 315.152 435.193 313.065L414.869 304.877Z" fill="url(#paint55_linear_182_79495)"/>
<path d="M413.743 266.667C413.743 266.667 408.601 292.274 383.619 302.389L374.702 301.345L372.613 304.717L393.499 305.359C393.499 305.359 411.333 298.295 420.812 279.029C421.053 278.387 426.274 267.631 413.743 266.667Z" fill="url(#paint56_linear_182_79495)"/>
<path d="M410.931 304.476C410.931 304.476 416.715 288.662 418 273.33C418 273.33 413.742 269.718 411.091 268.112C410.208 267.631 409.886 266.507 410.368 265.624C412.296 261.61 424.105 245.716 424.989 245.475C429.808 244.271 449.489 234.879 463.387 253.904C469.331 262.092 462.182 287.137 435.191 313.145L429.648 314.189L410.931 304.476Z" fill="url(#paint57_linear_182_79495)"/>
<path d="M433.344 276.782C433.344 276.782 417.198 295.887 396.553 298.696C396.553 298.696 391.251 293.8 387.235 295.566C383.298 297.332 377.836 304.957 377.836 304.957H404.345C404.345 304.957 429.408 304.074 441.94 288.903C440.976 283.525 437.923 280.394 433.344 276.782Z" fill="url(#paint58_linear_182_79495)"/>
<path d="M442.744 232.07L446.279 243.87C446.439 244.432 446.279 244.994 445.797 245.315C444.11 246.439 439.691 248.767 433.586 246.519C432.863 246.278 432.381 245.636 432.381 244.833L431.578 234.558L442.744 232.07Z" fill="url(#paint59_linear_182_79495)"/>
<path d="M422.098 222.517C422.098 222.517 423.865 234.719 428.524 238.492C433.183 242.265 442.341 239.455 445.474 230.224L439.288 214.49L422.098 222.517Z" fill="url(#paint60_linear_182_79495)"/>
<path d="M440.013 224.685C439.692 224.765 439.29 224.605 439.21 224.203C439.049 223.079 438.647 220.832 437.764 219.307C437.764 219.307 438.246 217.701 433.747 220.109C429.249 222.517 422.501 226.049 418.484 223.962C414.628 221.875 410.692 211.52 420.894 213.447C421.296 213.527 421.617 213.206 421.617 212.804C421.457 211.119 421.698 207.185 425.634 205.901C429.329 204.697 431.418 206.383 432.221 207.426C432.462 207.747 432.944 207.747 433.185 207.426C434.31 205.981 437.362 202.851 441.78 204.857C445.476 206.463 446.038 208.711 445.957 210.155C445.957 210.637 446.439 210.958 446.841 210.717C447.966 210.236 449.813 209.915 451.5 212.082C453.91 215.052 450.456 217.701 449.412 218.343C449.251 218.424 449.171 218.664 449.171 218.825C449.171 220.35 448.93 227.173 445.475 231.026C445.154 231.347 444.672 231.267 444.431 230.866L441.78 224.605C441.62 224.283 441.298 224.203 441.057 224.283L440.013 224.685Z" fill="url(#paint61_linear_182_79495)"/>
<path d="M439.934 225.969C439.934 225.969 441.54 219.467 443.95 221.554C446.36 223.641 443.307 228.377 440.496 229.26L439.934 225.969Z" fill="url(#paint62_linear_182_79495)"/>
<path d="M379.202 306.403L367.313 266.748C366.831 265.143 365.385 264.019 363.698 263.858L347.632 262.734C346.026 262.654 344.821 264.179 345.303 265.785L358.638 303.674C359.039 304.878 360.164 305.761 361.449 305.921L377.274 307.687L379.202 306.403Z" fill="url(#paint63_linear_182_79495)"/>
<path d="M357.272 280.234C358.155 282 359.682 283.044 360.726 282.562C361.69 282.08 361.851 280.234 360.967 278.388C360.083 276.622 358.557 275.578 357.513 276.06C356.468 276.541 356.388 278.388 357.272 280.234Z" fill="url(#paint64_linear_182_79495)"/>
<path d="M377.275 307.687C377.275 307.687 377.355 307.687 377.275 307.687L411.013 306.001C411.817 305.921 412.459 305.278 412.459 304.395C412.379 303.593 411.736 302.87 410.853 302.95L377.114 304.636C376.311 304.716 375.668 305.359 375.668 306.242C375.829 307.044 376.471 307.687 377.275 307.687Z" fill="url(#paint65_linear_182_79495)"/>
<path d="M417.999 273.731C417.758 273.731 417.598 273.57 417.598 273.33C417.598 266.185 420.329 256.793 420.329 256.633C420.409 256.392 420.65 256.312 420.811 256.392C421.052 256.472 421.132 256.713 421.052 256.874C421.052 256.954 418.321 266.266 418.321 273.33C418.401 273.57 418.24 273.731 417.999 273.731Z" fill="#E78456"/>
<path d="M433.346 277.184C433.266 277.184 433.186 277.184 433.105 277.103C432.945 276.943 432.864 276.702 433.025 276.542C433.105 276.461 440.415 267.15 442.906 260.808C442.986 260.567 443.227 260.487 443.388 260.567C443.629 260.647 443.709 260.888 443.629 261.049C441.058 267.471 433.909 276.542 433.668 276.943C433.587 277.103 433.507 277.184 433.346 277.184Z" fill="#E78456"/>
<path d="M443.705 291.552L442.259 289.545C442.099 289.384 442.179 289.143 442.34 288.983C442.5 288.822 442.741 288.903 442.902 289.063L443.946 290.508C454.229 285.932 460.575 273.651 460.655 273.57C460.735 273.41 460.976 273.33 461.217 273.41C461.378 273.49 461.458 273.731 461.378 273.972C461.298 274.132 454.711 286.896 444.027 291.471L443.705 291.552Z" fill="#E78456"/>
<defs>
<linearGradient id="paint0_linear_182_79495" x1="560.311" y1="362.419" x2="297.895" y2="13.3654" gradientUnits="userSpaceOnUse">
<stop stop-color="white"/>
<stop offset="1" stop-color="white" stop-opacity="0.26"/>
</linearGradient>
<linearGradient id="paint1_linear_182_79495" x1="3.91624" y1="136.353" x2="98.0671" y2="136.353" gradientUnits="userSpaceOnUse">
<stop stop-color="#DAE3FE"/>
<stop offset="1" stop-color="#E9EFFD"/>
</linearGradient>
<linearGradient id="paint2_linear_182_79495" x1="28.3456" y1="151.192" x2="71.8761" y2="122.713" gradientUnits="userSpaceOnUse">
<stop stop-color="#DAE3FE"/>
<stop offset="1" stop-color="#E9EFFD"/>
</linearGradient>
<linearGradient id="paint3_linear_182_79495" x1="147.584" y1="95.6549" x2="160.043" y2="87.5038" gradientUnits="userSpaceOnUse">
<stop stop-color="#DAE3FE"/>
<stop offset="1" stop-color="#E9EFFD"/>
</linearGradient>
<linearGradient id="paint4_linear_182_79495" x1="138.168" y1="101.819" x2="168.23" y2="82.1515" gradientUnits="userSpaceOnUse">
<stop stop-color="#DAE3FE"/>
<stop offset="1" stop-color="#E9EFFD"/>
</linearGradient>
<linearGradient id="paint5_linear_182_79495" x1="51.5676" y1="240.213" x2="474.922" y2="240.213" gradientUnits="userSpaceOnUse">
<stop stop-color="#09005D"/>
<stop offset="1" stop-color="#1A0F91"/>
</linearGradient>
<linearGradient id="paint6_linear_182_79495" x1="75.5623" y1="338.42" x2="456.64" y2="338.42" gradientUnits="userSpaceOnUse">
<stop stop-color="#6C98E3"/>
<stop offset="1" stop-color="#B3CDFA"/>
</linearGradient>
<linearGradient id="paint7_linear_182_79495" x1="313.507" y1="126.745" x2="307.599" y2="83.4106" gradientUnits="userSpaceOnUse">
<stop stop-color="#4F52FF"/>
<stop offset="1" stop-color="#4042E2"/>
</linearGradient>
<linearGradient id="paint8_linear_182_79495" x1="361.34" y1="120.223" x2="355.432" y2="76.889" gradientUnits="userSpaceOnUse">
<stop stop-color="#4F52FF"/>
<stop offset="1" stop-color="#4042E2"/>
</linearGradient>
<linearGradient id="paint9_linear_182_79495" x1="409.172" y1="113.702" x2="403.264" y2="70.3675" gradientUnits="userSpaceOnUse">
<stop stop-color="#4F52FF"/>
<stop offset="1" stop-color="#4042E2"/>
</linearGradient>
<linearGradient id="paint10_linear_182_79495" x1="170.515" y1="47.8458" x2="7.2536" y2="376.081" gradientUnits="userSpaceOnUse">
<stop stop-color="#6C98E3"/>
<stop offset="1" stop-color="#3457B4"/>
</linearGradient>
<linearGradient id="paint11_linear_182_79495" x1="44.2976" y1="294.063" x2="33.0218" y2="306.956" gradientUnits="userSpaceOnUse">
<stop stop-color="#6C98E3"/>
<stop offset="1" stop-color="#3457B4"/>
</linearGradient>
<linearGradient id="paint12_linear_182_79495" x1="187.921" y1="56.5034" x2="24.6594" y2="384.739" gradientUnits="userSpaceOnUse">
<stop stop-color="#6C98E3"/>
<stop offset="1" stop-color="#3457B4"/>
</linearGradient>
<linearGradient id="paint13_linear_182_79495" x1="68.357" y1="290.472" x2="57.0813" y2="303.366" gradientUnits="userSpaceOnUse">
<stop stop-color="#6C98E3"/>
<stop offset="1" stop-color="#3457B4"/>
</linearGradient>
<linearGradient id="paint14_linear_182_79495" x1="81.6153" y1="304.295" x2="-20.1786" y2="420.691" gradientUnits="userSpaceOnUse">
<stop stop-color="#6C98E3"/>
<stop offset="1" stop-color="#3457B4"/>
</linearGradient>
<linearGradient id="paint15_linear_182_79495" x1="271.465" y1="98.0568" x2="108.204" y2="426.292" gradientUnits="userSpaceOnUse">
<stop stop-color="#6C98E3"/>
<stop offset="1" stop-color="#3457B4"/>
</linearGradient>
<linearGradient id="paint16_linear_182_79495" x1="165.652" y1="294.063" x2="176.928" y2="306.956" gradientUnits="userSpaceOnUse">
<stop stop-color="#3457B4"/>
<stop offset="1" stop-color="#3457B4"/>
</linearGradient>
<linearGradient id="paint17_linear_182_79495" x1="250.918" y1="87.8362" x2="87.6555" y2="416.07" gradientUnits="userSpaceOnUse">
<stop stop-color="#6C98E3"/>
<stop offset="1" stop-color="#3457B4"/>
</linearGradient>
<linearGradient id="paint18_linear_182_79495" x1="142.616" y1="290.472" x2="153.892" y2="303.366" gradientUnits="userSpaceOnUse">
<stop stop-color="#2B3582"/>
<stop offset="1" stop-color="#3457B4"/>
</linearGradient>
<linearGradient id="paint19_linear_182_79495" x1="128.658" y1="304.691" x2="230.46" y2="421.096" gradientUnits="userSpaceOnUse">
<stop stop-color="#6C98E3"/>
<stop offset="1" stop-color="#3457B4"/>
</linearGradient>
<linearGradient id="paint20_linear_182_79495" x1="133.61" y1="249.759" x2="0.822045" y2="401.595" gradientUnits="userSpaceOnUse">
<stop stop-color="#385BB7"/>
<stop offset="1" stop-color="#6C98E3"/>
</linearGradient>
<linearGradient id="paint21_linear_182_79495" x1="200.875" y1="60.3236" x2="197.278" y2="119.815" gradientUnits="userSpaceOnUse">
<stop stop-color="#4F52FF"/>
<stop offset="1" stop-color="#4042E2"/>
</linearGradient>
<linearGradient id="paint22_linear_182_79495" x1="176.23" y1="58.8337" x2="172.633" y2="118.325" gradientUnits="userSpaceOnUse">
<stop stop-color="#4F52FF"/>
<stop offset="1" stop-color="#4042E2"/>
</linearGradient>
<linearGradient id="paint23_linear_182_79495" x1="186.183" y1="120.757" x2="173.523" y2="264.811" gradientUnits="userSpaceOnUse">
<stop stop-color="#4F52FF"/>
<stop offset="1" stop-color="#4042E2"/>
</linearGradient>
<linearGradient id="paint24_linear_182_79495" x1="181.894" y1="189.38" x2="185.631" y2="146.847" gradientUnits="userSpaceOnUse">
<stop stop-color="#4F52FF"/>
<stop offset="1" stop-color="#4042E2"/>
</linearGradient>
<linearGradient id="paint25_linear_182_79495" x1="188.614" y1="59.5819" x2="185.018" y2="119.073" gradientUnits="userSpaceOnUse">
<stop stop-color="#4F52FF"/>
<stop offset="1" stop-color="#4042E2"/>
</linearGradient>
<linearGradient id="paint26_linear_182_79495" x1="572.577" y1="-5949.88" x2="570.008" y2="-5866.29" gradientUnits="userSpaceOnUse">
<stop stop-color="#4F52FF"/>
<stop offset="1" stop-color="#4042E2"/>
</linearGradient>
<linearGradient id="paint27_linear_182_79495" x1="550.234" y1="-5950.61" x2="547.665" y2="-5867.01" gradientUnits="userSpaceOnUse">
<stop stop-color="#4F52FF"/>
<stop offset="1" stop-color="#4042E2"/>
</linearGradient>
<linearGradient id="paint28_linear_182_79495" x1="376.325" y1="165.289" x2="364.52" y2="299.616" gradientUnits="userSpaceOnUse">
<stop stop-color="#4F52FF"/>
<stop offset="1" stop-color="#4042E2"/>
</linearGradient>
<linearGradient id="paint29_linear_182_79495" x1="372.352" y1="228.154" x2="375.731" y2="189.706" gradientUnits="userSpaceOnUse">
<stop stop-color="#4F52FF"/>
<stop offset="1" stop-color="#4042E2"/>
</linearGradient>
<linearGradient id="paint30_linear_182_79495" x1="561.487" y1="-5950.19" x2="558.918" y2="-5866.6" gradientUnits="userSpaceOnUse">
<stop stop-color="#4F52FF"/>
<stop offset="1" stop-color="#4042E2"/>
</linearGradient>
<linearGradient id="paint31_linear_182_79495" x1="454.872" y1="-5953.51" x2="452.303" y2="-5869.91" gradientUnits="userSpaceOnUse">
<stop stop-color="#4F52FF"/>
<stop offset="1" stop-color="#4042E2"/>
</linearGradient>
<linearGradient id="paint32_linear_182_79495" x1="437.242" y1="-5954.09" x2="434.673" y2="-5870.49" gradientUnits="userSpaceOnUse">
<stop stop-color="#4F52FF"/>
<stop offset="1" stop-color="#4042E2"/>
</linearGradient>
<linearGradient id="paint33_linear_182_79495" x1="261.455" y1="129.788" x2="252.365" y2="233.223" gradientUnits="userSpaceOnUse">
<stop stop-color="#4F52FF"/>
<stop offset="1" stop-color="#4042E2"/>
</linearGradient>
<linearGradient id="paint34_linear_182_79495" x1="258.378" y1="178.881" x2="261.045" y2="148.535" gradientUnits="userSpaceOnUse">
<stop stop-color="#4F52FF"/>
<stop offset="1" stop-color="#4042E2"/>
</linearGradient>
<linearGradient id="paint35_linear_182_79495" x1="446.128" y1="-5953.74" x2="443.559" y2="-5870.14" gradientUnits="userSpaceOnUse">
<stop stop-color="#4F52FF"/>
<stop offset="1" stop-color="#4042E2"/>
</linearGradient>
<linearGradient id="paint36_linear_182_79495" x1="234.028" y1="380.242" x2="175.467" y2="572.525" gradientUnits="userSpaceOnUse">
<stop stop-color="#FF928E"/>
<stop offset="1" stop-color="#FE7062"/>
</linearGradient>
<linearGradient id="paint37_linear_182_79495" x1="234.312" y1="213.548" x2="202.475" y2="287.871" gradientUnits="userSpaceOnUse">
<stop stop-color="#FF928E"/>
<stop offset="1" stop-color="#FE7062"/>
</linearGradient>
<linearGradient id="paint38_linear_182_79495" x1="173.706" y1="320.265" x2="179.87" y2="348.467" gradientUnits="userSpaceOnUse">
<stop stop-color="#FF928E"/>
<stop offset="1" stop-color="#FE7062"/>
</linearGradient>
<linearGradient id="paint39_linear_182_79495" x1="275.083" y1="75.6544" x2="236.369" y2="119.922" gradientUnits="userSpaceOnUse">
<stop stop-color="#F47960"/>
<stop offset="1" stop-color="#E9605A"/>
</linearGradient>
<linearGradient id="paint40_linear_182_79495" x1="294.34" y1="30.3313" x2="131.079" y2="358.566" gradientUnits="userSpaceOnUse">
<stop stop-color="#F9B776"/>
<stop offset="1" stop-color="#FE7062"/>
</linearGradient>
<linearGradient id="paint41_linear_182_79495" x1="370.619" y1="-27.0559" x2="368.307" y2="13.7142" gradientUnits="userSpaceOnUse">
<stop stop-color="#09005D"/>
<stop offset="1" stop-color="#1A0F91"/>
</linearGradient>
<linearGradient id="paint42_linear_182_79495" x1="352.682" y1="59.3503" x2="189.421" y2="387.585" gradientUnits="userSpaceOnUse">
<stop stop-color="#F9B776"/>
<stop offset="1" stop-color="#FE7062"/>
</linearGradient>
<linearGradient id="paint43_linear_182_79495" x1="354.092" y1="327.787" x2="357.442" y2="288.576" gradientUnits="userSpaceOnUse">
<stop stop-color="#4F52FF"/>
<stop offset="1" stop-color="#4042E2"/>
</linearGradient>
<linearGradient id="paint44_linear_182_79495" x1="367.986" y1="327.787" x2="371.336" y2="288.576" gradientUnits="userSpaceOnUse">
<stop stop-color="#4F52FF"/>
<stop offset="1" stop-color="#4042E2"/>
</linearGradient>
<linearGradient id="paint45_linear_182_79495" x1="381.785" y1="327.787" x2="385.135" y2="288.576" gradientUnits="userSpaceOnUse">
<stop stop-color="#4F52FF"/>
<stop offset="1" stop-color="#4042E2"/>
</linearGradient>
<linearGradient id="paint46_linear_182_79495" x1="395.679" y1="327.787" x2="399.029" y2="288.576" gradientUnits="userSpaceOnUse">
<stop stop-color="#4F52FF"/>
<stop offset="1" stop-color="#4042E2"/>
</linearGradient>
<linearGradient id="paint47_linear_182_79495" x1="200.691" y1="262.914" x2="254.564" y2="229.484" gradientUnits="userSpaceOnUse">
<stop stop-color="#4F52FF"/>
<stop offset="1" stop-color="#4042E2"/>
</linearGradient>
<linearGradient id="paint48_linear_182_79495" x1="472.53" y1="95.6811" x2="524.639" y2="95.6811" gradientUnits="userSpaceOnUse">
<stop stop-color="#4F52FF"/>
<stop offset="1" stop-color="#4042E2"/>
</linearGradient>
<linearGradient id="paint49_linear_182_79495" x1="400.205" y1="265.275" x2="447.283" y2="340.172" gradientUnits="userSpaceOnUse">
<stop stop-color="#6975D0"/>
<stop offset="1" stop-color="#2B3582"/>
</linearGradient>
<linearGradient id="paint50_linear_182_79495" x1="356.265" y1="318.519" x2="338.87" y2="336.701" gradientUnits="userSpaceOnUse">
<stop stop-color="#2B3582"/>
<stop offset="1" stop-color="#150E42"/>
</linearGradient>
<linearGradient id="paint51_linear_182_79495" x1="383.134" y1="300.497" x2="365.033" y2="232.266" gradientUnits="userSpaceOnUse">
<stop stop-color="white"/>
<stop offset="1" stop-color="#6C98E3"/>
</linearGradient>
<linearGradient id="paint52_linear_182_79495" x1="333.174" y1="364.124" x2="300.262" y2="388.297" gradientUnits="userSpaceOnUse">
<stop stop-color="#2B3582"/>
<stop offset="1" stop-color="#150E42"/>
</linearGradient>
<linearGradient id="paint53_linear_182_79495" x1="317.437" y1="351.279" x2="386.678" y2="294.678" gradientUnits="userSpaceOnUse">
<stop stop-color="#FDF53F"/>
<stop offset="0.6645" stop-color="#E57A58"/>
<stop offset="1" stop-color="#D93C65"/>
</linearGradient>
<linearGradient id="paint54_linear_182_79495" x1="298.645" y1="391.828" x2="367.886" y2="335.227" gradientUnits="userSpaceOnUse">
<stop stop-color="#FDF53F"/>
<stop offset="0.6645" stop-color="#E57A58"/>
<stop offset="1" stop-color="#D93C65"/>
</linearGradient>
<linearGradient id="paint55_linear_182_79495" x1="332.701" y1="318.317" x2="401.566" y2="344.312" gradientUnits="userSpaceOnUse">
<stop stop-color="white"/>
<stop offset="1" stop-color="#6C98E3"/>
</linearGradient>
<linearGradient id="paint56_linear_182_79495" x1="386.372" y1="274.869" x2="408.708" y2="301.45" gradientUnits="userSpaceOnUse">
<stop stop-color="#F9B776"/>
<stop offset="1" stop-color="#F47960"/>
</linearGradient>
<linearGradient id="paint57_linear_182_79495" x1="449.24" y1="225.643" x2="413.47" y2="351.226" gradientUnits="userSpaceOnUse">
<stop stop-color="#FDF53F"/>
<stop offset="0.6645" stop-color="#E57A58"/>
<stop offset="1" stop-color="#D93C65"/>
</linearGradient>
<linearGradient id="paint58_linear_182_79495" x1="412.44" y1="299.04" x2="367.797" y2="237.923" gradientUnits="userSpaceOnUse">
<stop stop-color="#F9B776"/>
<stop offset="1" stop-color="#F47960"/>
</linearGradient>
<linearGradient id="paint59_linear_182_79495" x1="439.775" y1="248.418" x2="438.132" y2="233.615" gradientUnits="userSpaceOnUse">
<stop stop-color="#F9B776"/>
<stop offset="1" stop-color="#F47960"/>
</linearGradient>
<linearGradient id="paint60_linear_182_79495" x1="430.995" y1="235.506" x2="438.24" y2="211.592" gradientUnits="userSpaceOnUse">
<stop stop-color="#F9B776"/>
<stop offset="1" stop-color="#F47960"/>
</linearGradient>
<linearGradient id="paint61_linear_182_79495" x1="437.543" y1="191.602" x2="430.808" y2="230.047" gradientUnits="userSpaceOnUse">
<stop stop-color="#2B3582"/>
<stop offset="1" stop-color="#150E42"/>
</linearGradient>
<linearGradient id="paint62_linear_182_79495" x1="438.512" y1="237.782" x2="445.757" y2="213.869" gradientUnits="userSpaceOnUse">
<stop stop-color="#F9B776"/>
<stop offset="1" stop-color="#F47960"/>
</linearGradient>
<linearGradient id="paint63_linear_182_79495" x1="379.213" y1="285.22" x2="345.21" y2="285.22" gradientUnits="userSpaceOnUse">
<stop stop-color="#2B3582"/>
<stop offset="1" stop-color="#150E42"/>
</linearGradient>
<linearGradient id="paint64_linear_182_79495" x1="350.705" y1="270.81" x2="371.383" y2="291.806" gradientUnits="userSpaceOnUse">
<stop stop-color="#FDF53F"/>
<stop offset="1" stop-color="#D93C65"/>
</linearGradient>
<linearGradient id="paint65_linear_182_79495" x1="375.086" y1="300.072" x2="402.272" y2="307.528" gradientUnits="userSpaceOnUse">
<stop stop-color="#2B3582"/>
<stop offset="1" stop-color="#150E42"/>
</linearGradient>
</defs>
</svg>
